<?xml version="1.0" encoding="UTF-8"?>
<svg id="Layer_1" xmlns="http://www.w3.org/2000/svg" version="1.1" xmlns:bx="https://boxy-svg.com" viewBox="0 0 376.06 63.9">
  <!-- Generator: Adobe Illustrator 29.4.0, SVG Export Plug-In . SVG Version: 2.1.0 Build 152)  -->
  <defs>
    <style>
      .st0 {
        fill: #f4f3ee;
      }

      .st1 {
        isolation: isolate;
      }
    </style>
  </defs>
  <g id="_x3C_defs">
    <bx:guide x="-433.6921446918153" y="194.843584136132" angle="0"/>
    <bx:guide x="-302.39353995372073" y="256.6311628364118" angle="-90"/>
  </g>
  <g>
    <path class="st0" d="M18.49,23.42c-.09.06-.17.18-.19.3-.03.13.04.26.19.35.4.24,1.94,1.08,2.02,1.09.3.05.54-.38.33-.6-.06-.06-1.48-.87-1.94-1.11-.15-.07-.31-.08-.41-.02Z"/>
    <g>
      <path class="st0" d="M25.87.33c-3.14.68-5.86,1.69-8.63,3.2l-.58.32.03.28c.02.15.14,1.31.28,2.59s.27,2.49.29,2.69l.04.37-.82.62c-1.49,1.12-2.82,2.33-3.98,3.63-.37.4-.69.74-.73.75-.05.01-5.21-.99-5.73-1.11-.1-.03-.19.09-.61.73-1.41,2.15-2.63,4.67-3.46,7.11-.26.76-.54,1.7-.54,1.82,0,.04,1.01.89,2.25,1.89,1.23.99,2.27,1.83,2.3,1.85.03.03,0,.39-.07.83-.21,1.48-.29,2.53-.3,4.05,0,.81.02,1.73.04,2.05l.04.57-2.48,1.66c-1.37.91-2.49,1.68-2.49,1.7,0,.11.35,1.69.54,2.42.55,2.08,1.24,3.91,2.28,5.97.4.8.76,1.49.8,1.54.08.11-.26.14,4.85-.42l1.13-.12.55.73c1.13,1.51,2.61,3.12,3.92,4.27.28.25.52.49.53.52.02.05-.98,5.17-1.11,5.72-.03.1.07.18.57.51,2.06,1.34,4.16,2.41,6.42,3.25,1.12.42,2.6.87,2.71.83.04-.02.9-1.05,1.9-2.31l1.82-2.27.25.03c.14.02.49.07.79.11,1.6.25,4.41.35,5.92.23l.52-.04,1.66,2.49,1.65,2.48.2-.03c2.98-.51,6.42-1.75,9.32-3.34l.56-.31-.03-.27c-.02-.15-.14-1.31-.28-2.59s-.27-2.49-.29-2.69l-.04-.37.71-.53c1.55-1.17,3.14-2.62,4.29-3.93.25-.28.49-.52.52-.53.05-.02,5.17.98,5.72,1.11.1.03.18-.08.55-.64,1.12-1.72,1.89-3.18,2.66-4.97.67-1.57,1.46-3.9,1.38-4.09-.02-.06-3.92-3.24-4.5-3.68-.07-.05-.07-.16.03-.85.22-1.48.3-2.53.31-4.05,0-.81-.02-1.73-.04-2.05l-.04-.57,2.48-1.66c1.37-.91,2.49-1.67,2.49-1.69,0-.11-.29-1.44-.46-2.12-.64-2.57-1.61-5.03-2.94-7.42l-.28-.51-.31.03c-.16.02-1.21.13-2.32.26-1.11.12-2.31.25-2.66.28l-.64.07-.62-.82c-.34-.45-.86-1.11-1.16-1.45-.6-.71-2.32-2.44-2.88-2.89-.2-.16-.37-.34-.37-.38,0-.05.26-1.38.57-2.95s.57-2.86.57-2.87c0-.04-1.65-1.07-2.29-1.45-1.12-.64-2.91-1.5-4.12-1.98-1.48-.58-3.16-1.12-3.32-1.06-.05.02-3.2,3.88-3.67,4.5-.05.07-.16.07-.85-.03-1.54-.23-2.52-.3-4.14-.31-.86,0-1.78.02-2.05.04l-.49.04-1.66-2.48c-1.07-1.61-1.69-2.49-1.74-2.48-.05,0-.4.07-.8.16ZM33.62,15.89c4.43.29,8.45,2.3,11.33,5.67,1.65,1.92,2.9,4.44,3.45,6.94.8,3.61.37,7.27-1.24,10.61-1.37,2.84-3.5,5.17-6.2,6.79-5.19,3.13-11.75,3.08-16.89-.12-4.04-2.52-6.78-6.69-7.47-11.4-.46-3.2.04-6.45,1.45-9.37,2.6-5.37,7.81-8.81,13.8-9.13.68-.04.94-.04,1.77.02Z"/>
      <path class="st0" d="M32.66,19.92c-.32.13-.56.38-.68.69l-.07.18v5.35s-.01,5.35-.01,5.35h-5.06s-5.05.02-5.05.02l-.19.1c-.23.12-.36.23-.46.48-.07.16-.17.33-.17.61s0,.34.08.49c.15.33.42.58.75.67.15.04.81.05,5.77.05,4.57,0,5.62,0,5.74-.04.35-.1.61-.32.76-.67l.1-.21v-12.2l-.07-.18c-.1-.25-.32-.5-.56-.63-.17-.09-.23-.1-.46-.11-.2,0-.3,0-.4.05Z"/>
      <path class="st0" d="M32.77,15.5s-.11.08-.14.11c-.05.07-.05.11-.06,1.19,0,.7,0,1.15.02,1.21.02.05.06.13.1.17.07.07.1.08.25.08s.18,0,.25-.08c.04-.04.09-.11.1-.17.02-.06.02-.49.02-1.21,0-1.09-.01-1.12-.06-1.2-.07-.09-.2-.16-.32-.16-.05,0-.13.02-.18.05Z"/>
      <path class="st0" d="M24.5,17.52c-.19.06-.31.28-.25.46.04.11.98,1.8,1.08,1.93.12.17.36.2.52.06.16-.13.19-.29.1-.47-.06-.11-.99-1.76-1.05-1.85-.04-.06-.22-.16-.28-.16-.02,0-.07.01-.12.03Z"/>
      <path class="st0" d="M40.8,17.85c-.1.05-.13.09-.74,1.23-.4.75-.46.87-.46.97,0,.29.37.49.58.31.06-.05.79-1.36,1.1-1.96.08-.17.07-.32-.03-.43-.14-.16-.29-.2-.45-.12Z"/>
      <path class="st0" d="M46.69,23.67c-.07.02-1.77,1.03-1.94,1.15-.11.07-.16.17-.16.3,0,.21.13.36.34.37h.13s.97-.56.97-.56c.54-.32,1-.62,1.05-.66.16-.17.09-.47-.13-.57-.12-.05-.15-.06-.25-.02Z"/>
      <path class="st0" d="M16.3,32.2c-.31.09-.31.62.01.71.06.02.52.03,1.19.03.99,0,1.1,0,1.18-.05.25-.13.27-.5.03-.66-.06-.04-.16-.05-1.2-.05-.64,0-1.17,0-1.21.02Z"/>
      <path class="st0" d="M46.63,31.65c-.13.06-.2.17-.2.33s.07.27.2.33c.1.05.17.05,1.27.04,1.12,0,1.16-.01,1.23-.06.21-.15.21-.48,0-.63-.07-.05-.1-.05-1.23-.06-1.1,0-1.17,0-1.27.04Z"/>
      <path class="st0" d="M19.55,39.35c-.54.32-1,.61-1.05.66-.17.18-.09.49.16.58.09.04.13.04.2.02.08-.03,1.75-1.01,1.97-1.15.3-.2.15-.68-.21-.68-.09,0-.23.08-1.07.57Z"/>
      <path class="st0" d="M39.75,43.55c-.18.09-.26.28-.19.44.04.1.96,1.76,1.09,1.95.14.22.39.25.57.07.1-.09.14-.22.1-.34-.01-.04-.27-.53-.58-1.07-.6-1.06-.63-1.11-.82-1.11-.05,0-.13.03-.19.05Z"/>
      <path class="st0" d="M25.62,43.96c-.05.03-.26.35-.68,1.04-.55.89-.61,1-.61,1.1,0,.21.16.36.4.36.1,0,.13-.02.21-.08.1-.09,1.2-1.86,1.25-2,.1-.3-.29-.58-.56-.4Z"/>
      <path class="st0" d="M32.69,45.69c-.08.04-.18.17-.2.26,0,.05-.01.59,0,1.21,0,1.09.01,1.12.06,1.2.15.21.48.21.63,0,.05-.07.05-.11.06-1.21,0-.74,0-1.17-.02-1.23-.02-.05-.06-.12-.1-.17-.06-.06-.1-.07-.22-.08-.08,0-.17,0-.2.02Z"/>
    </g>
    <path class="st0" d="M44.82,38.57c-.19.11-.26.36-.14.53.04.07.28.21,1.01.63.52.3.99.55,1.05.57.08.03.11.02.21-.03.29-.14.31-.5.04-.67-.22-.14-1.74-1-1.84-1.04-.13-.06-.21-.06-.32,0Z"/>
  </g>
  <g class="st1">
    <path class="st0" d="M95.9,46.8v-26.35h-9.41v-5.36h25.2v5.36h-9.39v26.35h-6.4Z"/>
    <path class="st0" d="M114.98,20.71v-5.62h6.08v5.62h-6.08ZM114.98,46.8v-22.97h6.08v22.97h-6.08Z"/>
    <path class="st0" d="M126.83,23.83h5.6v3.14c2-2.44,4.39-3.66,7.16-3.66,1.47,0,2.75.3,3.83.91,1.08.61,1.97,1.52,2.66,2.75,1.01-1.22,2.1-2.14,3.27-2.75,1.17-.61,2.42-.91,3.74-.91,1.69,0,3.11.34,4.28,1.03,1.17.69,2.04,1.69,2.62,3.02.42.98.63,2.57.63,4.76v14.69h-6.08v-13.13c0-2.28-.21-3.75-.63-4.41-.56-.87-1.43-1.3-2.6-1.3-.85,0-1.65.26-2.4.78-.75.52-1.29,1.28-1.62,2.28-.33,1-.5,2.58-.5,4.75v11.03h-6.08v-12.59c0-2.24-.11-3.68-.32-4.33-.22-.65-.55-1.13-1.01-1.45s-1.07-.48-1.85-.48c-.94,0-1.78.25-2.53.76-.75.5-1.29,1.23-1.61,2.18-.32.95-.49,2.53-.49,4.74v11.16h-6.08v-22.97Z"/>
    <path class="st0" d="M179.98,39.49l6.06,1.02c-.78,2.22-2.01,3.91-3.69,5.07-1.68,1.16-3.78,1.74-6.31,1.74-3.99,0-6.95-1.31-8.87-3.92-1.51-2.09-2.27-4.73-2.27-7.92,0-3.81.99-6.79,2.98-8.94,1.99-2.16,4.51-3.23,7.55-3.23,3.42,0,6.11,1.13,8.09,3.39,1.98,2.26,2.92,5.71,2.83,10.37h-15.23c.04,1.8.53,3.21,1.47,4.21s2.11,1.5,3.5,1.5c.95,0,1.75-.26,2.4-.78.65-.52,1.14-1.36,1.47-2.51ZM180.32,33.35c-.04-1.76-.5-3.1-1.36-4.01s-1.92-1.37-3.16-1.37c-1.33,0-2.42.48-3.29,1.45-.87.97-1.29,2.28-1.28,3.94h9.08Z"/>
    <path class="st0" d="M198.49,46.8v-26.35h-9.41v-5.36h25.2v5.36h-9.39v26.35h-6.4Z"/>
    <path class="st0" d="M219.63,30.84l-5.52-1c.62-2.22,1.69-3.86,3.2-4.93,1.51-1.07,3.76-1.6,6.75-1.6,2.71,0,4.73.32,6.06.96,1.33.64,2.26,1.46,2.8,2.44.54.99.81,2.8.81,5.44l-.07,7.1c0,2.02.1,3.51.29,4.47.2.96.56,1.99,1.09,3.08h-6.01c-.16-.4-.35-1-.58-1.79-.1-.36-.17-.6-.22-.71-1.04,1.01-2.15,1.77-3.33,2.27-1.18.5-2.44.76-3.79.76-2.37,0-4.23-.64-5.59-1.93-1.36-1.28-2.04-2.91-2.04-4.87,0-1.3.31-2.46.93-3.47.62-1.02,1.49-1.79,2.61-2.34,1.12-.54,2.73-1.01,4.83-1.42,2.84-.53,4.81-1.03,5.91-1.49v-.61c0-1.17-.29-2-.87-2.5-.58-.5-1.67-.75-3.27-.75-1.08,0-1.93.21-2.53.64s-1.1,1.17-1.47,2.24ZM227.76,35.77c-.78.26-2.01.57-3.7.93-1.69.36-2.79.71-3.31,1.06-.79.56-1.19,1.28-1.19,2.14s.32,1.59.95,2.21c.63.62,1.44.93,2.42.93,1.1,0,2.14-.36,3.14-1.08.74-.55,1.22-1.22,1.45-2.01.16-.52.24-1.51.24-2.96v-1.21Z"/>
    <path class="st0" d="M259.75,30.62l-5.99,1.08c-.2-1.2-.66-2.1-1.37-2.7-.71-.61-1.64-.91-2.78-.91-1.51,0-2.72.52-3.62,1.57-.9,1.05-1.35,2.79-1.35,5.25,0,2.72.46,4.65,1.37,5.78.92,1.12,2.15,1.69,3.69,1.69,1.15,0,2.1-.33,2.83-.98.74-.66,1.25-1.78,1.56-3.38l5.97,1.02c-.62,2.74-1.81,4.81-3.57,6.21-1.76,1.4-4.12,2.1-7.07,2.1-3.36,0-6.04-1.06-8.04-3.18-2-2.12-3-5.05-3-8.8s1-6.74,3.01-8.86c2-2.11,4.72-3.17,8.13-3.17,2.8,0,5.02.6,6.67,1.81s2.84,3.04,3.56,5.5Z"/>
    <path class="st0" d="M274.89,23.83v4.84h-4.15v9.26c0,1.88.04,2.97.12,3.28.08.31.26.57.54.77s.62.3,1.03.3c.56,0,1.38-.2,2.44-.58l.52,4.71c-1.41.61-3.01.91-4.8.91-1.1,0-2.08-.18-2.96-.55-.88-.37-1.52-.84-1.94-1.43s-.7-1.37-.85-2.37c-.13-.71-.19-2.13-.19-4.28v-10.02h-2.79v-4.84h2.79v-4.56l6.1-3.55v8.11h4.15Z"/>
    <path class="st0" d="M279.11,20.71v-5.62h6.08v5.62h-6.08ZM279.11,46.8v-22.97h6.08v22.97h-6.08Z"/>
    <path class="st0" d="M311.45,30.62l-5.99,1.08c-.2-1.2-.66-2.1-1.37-2.7-.71-.61-1.64-.91-2.78-.91-1.51,0-2.72.52-3.62,1.57-.9,1.05-1.35,2.79-1.35,5.25,0,2.72.46,4.65,1.37,5.78.92,1.12,2.14,1.69,3.69,1.69,1.15,0,2.1-.33,2.83-.98.74-.66,1.25-1.78,1.56-3.38l5.97,1.02c-.62,2.74-1.81,4.81-3.57,6.21-1.76,1.4-4.12,2.1-7.07,2.1-3.36,0-6.04-1.06-8.04-3.18-2-2.12-3-5.05-3-8.8s1-6.74,3.01-8.86c2-2.11,4.72-3.17,8.13-3.17,2.8,0,5.02.6,6.67,1.81,1.65,1.2,2.84,3.04,3.56,5.5Z"/>
    <path class="st0" d="M316.06,20.71v-5.62h6.08v5.62h-6.08ZM316.06,46.8v-22.97h6.08v22.97h-6.08Z"/>
    <path class="st0" d="M332.91,30.84l-5.52-1c.62-2.22,1.69-3.86,3.2-4.93,1.51-1.07,3.76-1.6,6.75-1.6,2.71,0,4.73.32,6.06.96,1.33.64,2.26,1.46,2.8,2.44.54.99.81,2.8.81,5.44l-.06,7.1c0,2.02.1,3.51.29,4.47.19.96.56,1.99,1.09,3.08h-6.01c-.16-.4-.35-1-.58-1.79-.1-.36-.17-.6-.22-.71-1.04,1.01-2.15,1.77-3.33,2.27-1.18.5-2.44.76-3.79.76-2.37,0-4.23-.64-5.59-1.93-1.36-1.28-2.04-2.91-2.04-4.87,0-1.3.31-2.46.93-3.47s1.49-1.79,2.61-2.34,2.73-1.01,4.83-1.42c2.84-.53,4.81-1.03,5.91-1.49v-.61c0-1.17-.29-2-.87-2.5-.58-.5-1.67-.75-3.27-.75-1.08,0-1.92.21-2.53.64-.61.43-1.1,1.17-1.47,2.24ZM341.04,35.77c-.78.26-2.01.57-3.7.93s-2.79.71-3.31,1.06c-.79.56-1.19,1.28-1.19,2.14s.32,1.59.95,2.21c.63.62,1.44.93,2.42.93,1.1,0,2.14-.36,3.14-1.08.74-.55,1.22-1.22,1.45-2.01.16-.52.24-1.51.24-2.96v-1.21Z"/>
    <path class="st0" d="M373.9,46.8h-6.08v-11.72c0-2.48-.13-4.08-.39-4.81-.26-.73-.68-1.29-1.26-1.7-.58-.4-1.29-.61-2.11-.61-1.05,0-2,.29-2.83.87-.84.58-1.41,1.34-1.72,2.29-.31.95-.46,2.71-.46,5.28v10.4h-6.08v-22.97h5.65v3.37c2-2.6,4.53-3.89,7.57-3.89,1.34,0,2.57.24,3.68.72,1.11.48,1.95,1.1,2.52,1.85.57.75.97,1.6,1.19,2.55.22.95.33,2.31.33,4.09v14.28Z"/>
  </g>
</svg>