<?xml version="1.0" encoding="utf-8"?>
<svg viewBox="0 0 500 500" xmlns="http://www.w3.org/2000/svg" xmlns:bx="https://boxy-svg.com">
  <defs>
    <bx:guide x="-433.6921446918153" y="194.843584136132" angle="0"/>
    <bx:guide x="-302.39353995372073" y="256.6311628364118" angle="-90"/>
  </defs>
  <g transform="matrix(0.042808, 0, 0, -0.042812, -23.972601, 523.974609)" fill="#000000" stroke="none" style="">
    <path d="M5165 12210 c-576 -124 -1075 -309 -1581 -586 l-106 -58 6 -51 c3&#10;-27 26 -241 51 -475 25 -234 49 -456 53 -493 l8 -68 -150 -113 c-273 -206&#10;-516 -427 -729 -666 -67 -74 -126 -136 -133 -138 -9 -2 -955 182 -1050 204&#10;-18 5 -35 -16 -111 -133 -258 -394 -482 -855 -634 -1303 -48 -140 -99 -312&#10;-99 -334 0 -8 186 -164 413 -347 226 -182 416 -335 421 -339 5 -5 -1 -71 -13&#10;-152 -39 -272 -54 -464 -55 -743 0 -148 3 -317 7 -376 l8 -105 -455 -304&#10;c-251 -167 -456 -307 -456 -312 0 -21 64 -309 99 -443 100 -381 228 -717 418&#10;-1095 73 -146 140 -273 147 -283 15 -20 -48 -25 889 77 l208 22 101 -134 c208&#10;-277 478 -571 718 -783 52 -46 96 -89 98 -96 3 -9 -180 -947 -204 -1049 -5&#10;-18 12 -33 105 -93 377 -246 763 -441 1176 -596 205 -77 477 -160 497 -153 8&#10;3 165 193 349 423 l334 416 45 -5 c25 -3 90 -12 145 -20 293 -45 808 -65 1086&#10;-43 l95 8 304 -456 303 -455 36 6 c547 94 1177 320 1709 612 l103 57 -5 50&#10;c-3 28 -26 241 -51 475 -25 234 -49 456 -53 493 l-8 68 130 98 c284 214 575&#10;481 787 721 46 52 89 96 96 98 9 3 947 -180 1049 -204 18 -5 33 14 101 118&#10;205 316 347 582 487 911 122 287 267 714 253 749 -4 11 -718 594 -825 674 -13&#10;9 -12 30 6 156 40 272 55 464 56 743 0 149 -3 317 -7 376 l-8 105 455 304&#10;c251 167 456 306 456 310 0 20 -53 263 -85 388 -118 471 -296 921 -538 1360&#10;l-51 93 -56 -5 c-30 -4 -221 -24 -425 -47 -203 -22 -423 -45 -488 -52 l-118&#10;-13 -113 150 c-63 83 -158 203 -212 266 -110 130 -425 447 -527 530 -37 30&#10;-67 62 -67 70 0 9 47 252 105 540 58 288 105 525 105 526 0 7 -303 197 -420&#10;265 -205 117 -533 274 -755 362 -271 106 -580 205 -608 194 -10 -4 -586 -711&#10;-673 -825 -9 -13 -30 -12 -156 6 -282 42 -462 55 -758 56 -157 0 -326 -3 -376&#10;-7 l-90 -8 -304 455 c-196 295 -309 456 -319 455 -9 0 -74 -13 -146 -29z&#10;m1420 -2851 c812 -53 1549 -422 2076 -1039 302 -352 531 -814 633 -1271 147&#10;-662 68 -1333 -228 -1944 -252 -521 -641 -947 -1136 -1245 -951 -574 -2153&#10;-565 -3096 22 -741 461 -1242 1226 -1369 2090 -85 587 7 1182 265 1717 477&#10;984 1431 1615 2530 1674 125 7 173 7 325 -4z"/>
  </g>
  <path d="M 250.412 154.937 C 247.91 155.995 245.987 157.938 245.084 160.325 L 244.551 161.727 L 244.481 203.719 L 244.435 245.736 L 204.751 245.785 L 165.09 245.859 L 163.561 246.646 C 161.731 247.606 160.775 248.454 159.918 250.423 C 159.362 251.653 158.604 253.043 158.604 255.207 C 158.604 257.348 158.673 257.839 159.206 259.045 C 160.364 261.652 162.519 263.596 165.09 264.309 C 166.295 264.629 171.461 264.678 210.381 264.678 C 246.265 264.678 254.489 264.604 255.439 264.334 C 258.196 263.571 260.211 261.8 261.416 259.069 L 262.157 257.422 L 262.157 209.574 L 262.157 161.727 L 261.624 160.325 C 260.86 158.332 259.122 156.388 257.222 155.404 C 255.879 154.691 255.416 154.593 253.586 154.519 C 251.987 154.494 251.246 154.568 250.412 154.937 Z" style="" fill="#000000" stroke="none"/>
  <g transform="matrix(0.996798, 0, 0, 0.996799, 6.061715, 2.84341)" style="">
    <path d="M 245.96 117.752 C 245.579 117.932 245.079 118.353 244.858 118.653 C 244.458 119.214 244.438 119.494 244.378 128.024 C 244.338 133.571 244.398 137.095 244.518 137.576 C 244.638 137.996 245.019 138.597 245.339 138.917 C 245.92 139.458 246.1 139.518 247.341 139.518 C 248.583 139.518 248.763 139.458 249.344 138.917 C 249.684 138.597 250.045 138.016 250.165 137.616 C 250.305 137.175 250.345 133.791 250.305 128.064 C 250.245 119.494 250.225 119.214 249.824 118.653 C 249.304 117.932 248.243 117.391 247.341 117.391 C 246.961 117.391 246.34 117.552 245.96 117.752 Z" fill="#000000" stroke="none"/>
    <path d="M 180.894 133.681 C 179.393 134.121 178.431 135.863 178.912 137.265 C 179.212 138.146 186.641 151.422 187.402 152.463 C 188.383 153.785 190.206 154.005 191.467 152.944 C 192.689 151.923 192.949 150.661 192.248 149.279 C 191.808 148.418 184.479 135.443 184.018 134.702 C 183.718 134.221 182.316 133.44 181.816 133.48 C 181.655 133.48 181.255 133.581 180.894 133.681 Z" fill="#000000" stroke="none"/>
    <path d="M 309.206 136.281 C 308.425 136.661 308.205 137.002 303.379 145.972 C 300.235 151.839 299.755 152.841 299.755 153.602 C 299.755 155.904 302.658 157.466 304.32 156.064 C 304.821 155.644 310.568 145.332 312.95 140.606 C 313.591 139.304 313.511 138.123 312.73 137.222 C 311.649 136 310.447 135.66 309.206 136.281 Z" fill="#000000" stroke="none"/>
    <path d="M 355.561 182.036 C 355.041 182.216 341.665 190.125 340.263 191.066 C 339.422 191.647 339.002 192.408 339.002 193.409 C 339.002 195.071 340.043 196.233 341.645 196.353 L 342.706 196.453 L 350.315 191.927 C 354.56 189.384 358.205 187.082 358.585 186.701 C 359.847 185.34 359.326 182.977 357.544 182.176 C 356.623 181.755 356.362 181.735 355.561 182.036 Z" fill="#000000" stroke="none"/>
    <path d="M 133.533 180.112 C 132.852 180.552 132.211 181.534 132.051 182.435 C 131.851 183.476 132.391 184.457 133.533 185.158 C 136.676 187.08 148.831 193.648 149.412 193.728 C 151.775 194.129 153.637 190.765 152.035 189.003 C 151.574 188.522 140.421 182.154 136.757 180.292 C 135.615 179.711 134.314 179.651 133.533 180.112 Z" fill="#000000" stroke="none"/>
    <path d="M 116.356 249.22 C 113.893 249.941 113.953 254.106 116.456 254.806 C 116.917 254.927 120.561 255.007 125.807 255.007 C 133.597 255.007 134.478 254.967 135.119 254.646 C 137.121 253.645 137.281 250.701 135.379 249.46 C 134.878 249.12 134.137 249.1 125.908 249.06 C 120.841 249.04 116.716 249.1 116.356 249.22 Z" fill="#000000" stroke="none"/>
    <path d="M 355.081 244.851 C 354.08 245.311 353.539 246.213 353.539 247.474 C 353.539 248.776 354.08 249.637 355.141 250.097 C 355.962 250.478 356.463 250.498 365.113 250.438 C 373.964 250.378 374.224 250.358 374.785 249.957 C 376.426 248.756 376.426 246.193 374.785 244.991 C 374.224 244.591 373.964 244.571 365.073 244.531 C 356.423 244.47 355.882 244.49 355.081 244.851 Z" fill="#000000" stroke="none"/>
    <path d="M 141.892 305.514 C 137.667 308.037 134.022 310.339 133.662 310.72 C 132.32 312.142 132.961 314.605 134.883 315.325 C 135.604 315.606 135.904 315.626 136.465 315.446 C 137.086 315.245 150.242 307.516 151.964 306.355 C 154.327 304.753 153.165 301.008 150.302 301.008 C 149.601 301.008 148.48 301.609 141.892 305.514 Z" fill="#000000" stroke="none"/>
    <path d="M 340.784 299.376 C 339.302 300.217 338.761 302.24 339.662 303.541 C 340.003 304.062 341.845 305.203 347.592 308.487 C 351.717 310.83 355.421 312.852 355.842 312.973 C 356.483 313.173 356.703 313.153 357.504 312.772 C 359.807 311.651 359.947 308.868 357.784 307.526 C 356.062 306.445 344.088 299.657 343.307 299.316 C 342.266 298.836 341.665 298.856 340.784 299.376 Z" fill="#000000" stroke="none"/>
    <path d="M 300.916 338.583 C 299.534 339.324 298.894 340.786 299.434 342.067 C 299.755 342.848 307.023 355.904 308.004 357.446 C 309.086 359.168 311.068 359.408 312.53 357.987 C 313.291 357.246 313.611 356.244 313.351 355.343 C 313.251 355.003 311.208 351.178 308.805 346.893 C 304.1 338.523 303.839 338.183 302.378 338.183 C 301.977 338.203 301.316 338.383 300.916 338.583 Z" fill="#000000" stroke="none"/>
    <path d="M 189.655 341.787 C 189.235 342.047 187.573 344.57 184.269 349.937 C 179.923 356.965 179.463 357.786 179.463 358.607 C 179.423 360.249 180.744 361.41 182.627 361.41 C 183.388 361.41 183.668 361.29 184.249 360.75 C 185.01 360.049 193.68 346.132 194.08 344.971 C 194.901 342.628 191.798 340.405 189.655 341.787 Z" fill="#000000" stroke="none"/>
    <path d="M 245.36 355.399 C 244.739 355.679 243.918 356.761 243.778 357.481 C 243.718 357.842 243.678 362.107 243.718 366.973 C 243.778 375.543 243.798 375.823 244.198 376.384 C 245.4 378.026 247.963 378.026 249.164 376.384 C 249.565 375.823 249.585 375.543 249.645 366.873 C 249.685 361.086 249.645 357.662 249.505 357.221 C 249.385 356.821 249.024 356.24 248.684 355.92 C 248.183 355.439 247.883 355.339 246.942 355.279 C 246.301 355.259 245.6 355.299 245.36 355.399 Z" fill="#000000" stroke="none"/>
  </g>
</svg>