<svg width="64" height="60.00000000000001" xmlns="http://www.w3.org/2000/svg">
 <title>pin, office, equipment, stationary</title>

 <g>
  <title>Layer 1</title>
  <g id="svg_1" data-name="19">
   <path id="svg_2" d="m58.18799,17.95091l-14.14,-14.14a5.5,5.5 0 0 0 -7.78,0l-3.54,3.54a5.51,5.51 0 0 0 0,7.78l14.15,14.14a5.5,5.5 0 0 0 7.78,0l3.54,-3.54a5.51,5.51 0 0 0 -0.01,-7.78z"/>
   <path id="svg_3" d="m39.18799,38.56091l-15.75,-15.75a9.45,9.45 0 0 0 -12.33,-0.94l-5.07,3.71a1.5,1.5 0 0 0 -0.16,2.27l28.27,28.27a1.5,1.5 0 0 0 1.06,0.44l0.11,0a1.5,1.5 0 0 0 1.1,-0.61l3.72,-5.07a9.45,9.45 0 0 0 -0.95,-12.32z"/>
   <rect transform="rotate(-45.05 -9.69201 31.6909)" id="svg_4" height="19.01" width="8" y="50.51091" x="21.99799"/>
   <path id="svg_5" d="m19.64799,44.47091l-12.89,12.89a1.49,1.49 0 0 1 -1.06,0.44a1.5,1.5 0 0 1 -1.06,-2.56l12.89,-12.89l2.12,2.12z"/>
  </g>
 </g>
</svg>