<svg width="60" height="60" xmlns="http://www.w3.org/2000/svg">
 <title>pin, office, equipment, stationary</title>

 <g>
  <title>Layer 1</title>
  <g id="svg_1" data-name="19">
   <path id="svg_2" d="m56.21232,17.9322l-14.14,-14.14a5.5,5.5 0 0 0 -7.78,0l-3.54,3.54a5.51,5.51 0 0 0 0,7.78l0.35,0.35l-8.49,8.49l-1.16,-1.16a9.45,9.45 0 0 0 -12.33,-0.94l-5.06,3.71a1.5,1.5 0 0 0 -0.16,2.27l13.07,13.08l-14.31,14.31a1.5,1.5 0 1 0 2.12,2.12l14.3,-14.3l13.09,13.06a1.5,1.5 0 0 0 1.06,0.44l0.11,0a1.5,1.5 0 0 0 1.1,-0.61l3.72,-5.07a9.45,9.45 0 0 0 -0.94,-12.33l-1.16,-1.16l8.49,-8.49l0.35,0.35a5.5,5.5 0 0 0 7.78,0l3.54,-3.54a5.51,5.51 0 0 0 -0.01,-7.76zm-20.47,31.17l-2.69,3.66l-25.81,-25.81l3.66,-2.69a6.47,6.47 0 0 1 8.44,0.65l2.22,2.19l0,0l11.34,11.34l0,0l2.22,2.22a6.46,6.46 0 0 1 0.62,8.44zm-1.84,-13.84l-9.16,-9.16l8.49,-8.49l1.19,1.19l8,8l-8.52,8.46zm20.19,-11.67l-3.54,3.51a2.56,2.56 0 0 1 -3.54,0l-1.41,-1.41l0,0l-10.37,-10.35l-2.33,-2.36a2.5,2.5 0 0 1 0,-3.54l3.54,-3.54a2.5,2.5 0 0 1 3.54,0l14.11,14.2a2.5,2.5 0 0 1 0,3.49z"/>
  </g>
 </g>
</svg>