<svg width="100" height="100" xmlns="http://www.w3.org/2000/svg" version="1.1">

 <g>
  <title>Layer 1</title>
  <g stroke="null" id="svg_16">
   <path stroke="null" id="svg_1" d="m99.30361,30.54083c-0.00442,-0.01324 -0.00442,-10.8219 -0.00442,-10.83964c-0.00441,-4.87252 -3.95451,-8.82262 -8.82702,-8.82702l-5.82578,0l0,-2.63483c0,-4.23697 -3.43375,-7.67073 -7.66632,-7.67073c-4.23697,0 -7.67073,3.43375 -7.67073,7.67073l0,2.63483l-38.61858,0l0,-2.63483c0,-4.23697 -3.43375,-7.67073 -7.66632,-7.67073c-4.23697,0 -7.67073,3.43375 -7.67073,7.67073l0,2.63483l-5.8303,0c-4.87252,0.00442 -8.82262,3.95451 -8.82702,8.82702l0,70.90318c0.00442,4.87252 3.95451,8.82262 8.82702,8.82702l80.94875,0c4.87252,-0.00442 8.82262,-3.95451 8.82702,-8.82702c0.00884,-0.01324 -0.00882,-60.05427 0.00442,-60.06331l0,-0.00023zm-26.46356,-22.30116c0.02648,-2.26853 1.87127,-4.09133 4.13992,-4.09133c2.26853,0 4.11336,1.8228 4.13551,4.09133l0,2.63483l-8.27531,0l-0.00011,-2.63483zm-53.95529,0c0.02648,-2.26853 1.87127,-4.09133 4.13992,-4.09133s4.11336,1.8228 4.13551,4.09133l0,2.63483l-8.27531,0l-0.00011,-2.63483zm-9.36111,6.16564l5.8303,0l0,2.56422c0.00442,4.23697 3.43816,7.66632 7.67073,7.67073c0.97538,0 1.7654,-0.79002 1.7654,-1.7654c0,-0.97538 -0.79002,-1.7654 -1.7654,-1.7654c-2.28616,-0.00442 -4.13551,-1.85365 -4.13992,-4.13992l0,-2.56422l50.42448,0l0,2.56422c0.00442,4.23697 3.43816,7.66632 7.67073,7.67073c0.96214,-0.01766 1.73004,-0.80326 1.73004,-1.7654c0,-0.96214 -0.76795,-1.74778 -1.73004,-1.7654c-2.28616,-0.00442 -4.13551,-1.85365 -4.13992,-4.13992l0,-2.56422l17.63145,0c2.92611,0 5.29621,2.37011 5.29621,5.29621l0,9.07412l-91.54118,0l0,-9.07412c0.00442,-2.92611 2.37011,-5.29621 5.29621,-5.29621l0.0009,0zm80.94875,81.49561l-80.94875,0c-2.92611,-0.00442 -5.29181,-2.37451 -5.29621,-5.29621l0,-58.29847l91.54118,0l0,58.29847c0,2.9217 -2.37011,5.29181 -5.29621,5.29621z"/>
   <path stroke="null" id="svg_2" d="m49.99995,51.44774c4.11336,-0.03973 7.43233,-3.38517 7.43233,-7.50294s-3.31896,-7.46769 -7.43233,-7.50294c-4.11777,0.03531 -7.43673,3.38517 -7.43673,7.50294s3.31896,7.46328 7.43673,7.50294zm0,-11.47485c2.17588,0.02207 3.92807,1.79625 3.92807,3.97213s-1.75219,3.94569 -3.92807,3.97213c-2.18029,-0.02648 -3.92807,-1.79625 -3.92807,-3.97213s1.74778,-3.9501 3.92807,-3.97213z"/>
   <path stroke="null" id="svg_3" d="m17.72891,49.79702c0.71058,-0.00882 1.34611,-0.44576 1.61536,-1.10338c0.26922,-0.65761 0.11917,-1.41232 -0.37956,-1.91986c-0.75913,-0.74589 -1.18726,-1.7654 -1.18285,-2.82905c0,-1.79625 1.20048,-3.36314 2.93063,-3.83531c1.73004,-0.46783 3.56165,0.27805 4.47085,1.82721c0.50314,0.8165 1.56678,1.08131 2.39654,0.59582c0.82975,-0.4899 1.11662,-1.54915 0.64437,-2.38773c-1.73897,-2.88204 -5.17701,-4.26341 -8.42536,-3.38076s-5.51247,3.81327 -5.54783,7.18082c0.04855,2.15374 1.09455,5.43745 3.47782,5.85233l0.00003,-0.00009z"/>
   <path stroke="null" id="svg_4" d="m78.24642,36.44209c-4.11777,0.03531 -7.43673,3.38517 -7.43673,7.50294s3.31896,7.46328 7.43673,7.50294c4.11777,-0.03973 7.43233,-3.38517 7.43233,-7.50294s-3.31455,-7.46769 -7.43233,-7.50294zm0,11.47485c-2.18029,-0.02648 -3.92807,-1.79625 -3.92807,-3.97213s1.74778,-3.9501 3.92807,-3.97213c2.17588,0.02207 3.92807,1.79625 3.92807,3.97213s-1.75219,3.94569 -3.92807,3.97213z"/>
   <path stroke="null" id="svg_5" d="m49.99995,72.6326c4.11336,-0.03973 7.43233,-3.38517 7.43233,-7.50294s-3.31896,-7.46769 -7.43233,-7.50294c-4.11777,0.03531 -7.43673,3.38517 -7.43673,7.50294s3.31896,7.46328 7.43673,7.50294zm0,-11.47485c2.17588,0.02207 3.92807,1.79625 3.92807,3.97213s-1.75219,3.94569 -3.92807,3.97213c-2.18029,-0.02648 -3.92807,-1.79625 -3.92807,-3.97213s1.74778,-3.9501 3.92807,-3.97213z"/>
   <path stroke="null" id="svg_6" d="m17.78992,71.04402c0.71499,-0.01324 1.35052,-0.45018 1.61977,-1.11662c0.26482,-0.66203 0.10592,-1.42114 -0.40163,-1.92426c-0.86504,-0.82533 -1.31086,-1.99488 -1.21369,-3.18654c0.09268,-1.19166 0.7194,-2.27734 1.7036,-2.95707c0.9798,-0.67968 2.21554,-0.87828 3.36314,-0.54286c1.14748,0.33101 2.08323,1.16511 2.551,2.26412c0.18096,0.43252 0.5252,0.77678 0.96214,0.95332c0.43252,0.17654 0.91801,0.17212 1.35052,-0.00882c0.43252,-0.18536 0.77678,-0.52962 0.9489,-0.96656c0.17654,-0.43252 0.17212,-0.91801 -0.00882,-1.35052c-1.39029,-3.28812 -4.90336,-5.14176 -8.40333,-4.43119c-3.49996,0.70616 -6.01119,3.78243 -6.01119,7.3529c0.04413,2.1891 1.12986,5.47722 3.53962,5.91413l-0.00002,-0.00002z"/>
   <path stroke="null" id="svg_7" d="m78.24642,57.62694c-4.11777,0.03531 -7.43673,3.38517 -7.43673,7.50294s3.31896,7.46328 7.43673,7.50294c4.11777,-0.03973 7.43233,-3.38517 7.43233,-7.50294s-3.31455,-7.46769 -7.43233,-7.50294zm0,11.47485c-2.18029,-0.02648 -3.92807,-1.79625 -3.92807,-3.97213s1.74778,-3.9501 3.92807,-3.97213c2.17588,0.02207 3.92807,1.79625 3.92807,3.97213s-1.75219,3.94569 -3.92807,3.97213z"/>
   <path stroke="null" id="svg_8" d="m46.02736,84.54923c0.02207,-1.77422 1.21369,-3.31896 2.92611,-3.79124c1.70801,-0.47225 3.522,0.24274 4.45323,1.75219c0.51196,0.81209 1.57999,1.06807 2.40536,0.57375s1.10338,-1.55796 0.6223,-2.39214c-1.75659,-2.8599 -5.19035,-4.21053 -8.42095,-3.31455c-3.23072,0.89153 -5.48162,3.81768 -5.51688,7.17201c0.03973,2.52456 1.46531,5.80375 4.11777,6.39963l-0.00442,0c0.75913,-0.01324 1.42114,-0.50314 1.65954,-1.22251c0.23391,-0.7194 -0.01323,-1.50938 -0.61348,-1.96844c-1.01952,-0.75029 -1.62858,-1.942 -1.62858,-3.20857l0,-0.00012z"/>
   <path stroke="null" id="svg_9" d="m21.75347,77.04696c-4.11777,0.03531 -7.43673,3.38517 -7.43673,7.50294s3.31896,7.46328 7.43673,7.50294c4.11777,-0.03973 7.43233,-3.38517 7.43233,-7.50294s-3.31455,-7.46769 -7.43233,-7.50294zm0,11.47485c-2.18029,-0.02648 -3.92807,-1.79625 -3.92807,-3.97213s1.74778,-3.9501 3.92807,-3.97213c2.17588,0.02207 3.92807,1.79625 3.92807,3.97213s-1.75219,3.94569 -3.92807,3.97213z"/>
   <path stroke="null" id="svg_10" d="m78.24642,77.04696c-4.11777,0.03531 -7.43673,3.38517 -7.43673,7.50294s3.31896,7.46328 7.43673,7.50294c4.11777,-0.03973 7.43233,-3.38517 7.43233,-7.50294s-3.31455,-7.46769 -7.43233,-7.50294zm0,11.47485c-2.18029,-0.02648 -3.92807,-1.79625 -3.92807,-3.97213s1.74778,-3.9501 3.92807,-3.97213c2.17588,0.02207 3.92807,1.79625 3.92807,3.97213s-1.75219,3.94569 -3.92807,3.97213z"/>
   <path stroke="null" id="svg_11" d="m35.64735,40.29039l-10.17314,7.52949l-2.11849,-4.61649l0,0.00442c-0.41928,-0.86504 -1.45209,-1.24025 -2.32593,-0.83857c-0.87388,0.40163 -1.26669,1.42995 -0.8827,2.31271l3.02768,6.58934c0.22509,0.48107 0.65321,0.83415 1.16511,0.96656c0.51638,0.13241 1.05924,0.02647 1.48735,-0.28688l11.91662,-8.82262c0.76354,-0.587 0.91801,-1.67716 0.34426,-2.44953c-0.57375,-0.77236 -1.65954,-0.94449 -2.44072,-0.38839l-0.00005,-0.00003z"/>
   <path stroke="null" id="svg_12" d="m35.64735,61.47524l-10.17314,7.52949l-2.11849,-4.61649l0,0.00442c-0.41928,-0.86504 -1.45209,-1.24025 -2.32593,-0.83857c-0.87388,0.40163 -1.26669,1.42995 -0.8827,2.31271l3.02768,6.58934c0.22509,0.48107 0.65321,0.83415 1.16511,0.96656c0.51638,0.13241 1.05924,0.02647 1.48735,-0.28688l11.91662,-8.82262c0.76354,-0.587 0.91801,-1.67716 0.34426,-2.44953c-0.57375,-0.77236 -1.65954,-0.94449 -2.44072,-0.38839l-0.00005,-0.00003z"/>
   <path stroke="null" id="svg_13" d="m63.89834,81.28393l-10.16873,7.52949l-2.12289,-4.61649c-0.41928,-0.86504 -1.45209,-1.23584 -2.32593,-0.83415c-0.87388,0.40163 -1.26669,1.42995 -0.8827,2.3083l3.02768,6.59374c0.22509,0.47666 0.65319,0.83415 1.16963,0.96656c0.51196,0.13241 1.05924,0.02648 1.48735,-0.28688l11.91662,-8.82262c0.76354,-0.587 0.91359,-1.67716 0.34426,-2.45394c-0.57375,-0.77236 -1.66394,-0.94449 -2.44513,-0.38397l-0.00016,-0.00005z"/>
  </g>
 </g>
</svg>