<svg width="80" height="80" xmlns="http://www.w3.org/2000/svg">

 <g>
  <title>Layer 1</title>
  <path stroke="null" id="svg_1" fill-rule="evenodd" d="m22.19107,39.65391c-0.81085,-0.29665 -1.56236,-0.77129 -2.19521,-1.40415c-1.12727,-1.12727 -1.76013,-2.65008 -1.76013,-4.23222l0,-3.87624c0,-1.58214 0.63285,-3.08517 1.74035,-4.21244c1.1075,-1.1075 2.6303,-1.74035 4.21244,-1.74035l43.48899,0c1.58214,0 3.08517,0.63285 4.21244,1.74035c1.1075,1.1075 1.74035,2.6303 1.74035,4.21244l0,3.87624c0,1.58214 -0.63285,3.12472 -1.76013,4.23222c-0.63285,0.63285 -1.38437,1.1075 -2.19521,1.40415l0,12.49888c0.79107,-0.17799 1.46348,-0.27687 1.97767,-0.27687c2.74896,0 7.91068,0.45486 7.91068,5.93301c0,0.61308 -0.19777,1.40415 -0.71196,2.31388c-0.75151,1.34482 -2.31388,3.16427 -4.39043,5.14194c-4.56842,4.3311 -11.68804,9.53237 -17.48261,12.28134c-2.72919,1.28549 -5.22105,2.01722 -7.08006,2.01722l-15.82137,0c-4.37065,0 -12.55821,-2.27432 -16.35534,-3.42137c-0.29665,0.63285 -0.69218,1.20638 -1.1866,1.7008c-1.1075,1.1075 -2.59075,1.72057 -4.15311,1.72057l-6.07145,0c-1.56236,0 -3.04561,-0.61308 -4.15311,-1.72057c-1.1075,-1.1075 -1.72057,-2.59075 -1.72057,-4.15311l0,-15.94003c0,-1.56236 0.61308,-3.04561 1.72057,-4.15311c1.1075,-1.1075 2.59075,-1.72057 4.15311,-1.72057l6.05167,0c1.56236,0 3.04561,0.61308 4.15311,1.72057c0.49442,0.49442 0.88995,1.08772 1.1866,1.7008c1.16683,-0.3362 2.74896,-0.79107 4.48931,-1.26571c0,-0.05933 0,-0.11866 0,-0.19777l0,-14.19968l0,0l0,0.01978zm-9.88836,16.17735l0.05933,0c0.51419,0 1.00861,0.19777 1.36459,0.55375c0.35598,0.35598 0.55375,0.8504 0.55375,1.36459l0,15.94003c0,0.51419 -0.19777,1.00861 -0.55375,1.36459s-0.8504,0.55375 -1.36459,0.55375l-6.05167,0c-0.51419,0 -1.00861,-0.19777 -1.36459,-0.55375c-0.35598,-0.35598 -0.55375,-0.8504 -0.55375,-1.36459l0,-15.94003c0,-0.51419 0.19777,-1.00861 0.55375,-1.36459c0.35598,-0.35598 0.8504,-0.55375 1.36459,-0.55375l2.037,0l0,11.86603c0,1.08772 0.88995,1.97767 1.97767,1.97767s1.97767,-0.88995 1.97767,-1.97767l0,-11.86603l0,0zm5.93301,16.35534l0,-12.91419c3.28293,-1.00861 11.64848,-3.44115 15.82137,-3.44115c4.42998,0 9.53237,0.61308 12.91419,2.35343c1.66124,0.8504 2.90718,1.93812 2.90718,3.57958l0,0.03955c0,0.45486 -0.31643,0.75151 -0.71196,0.98884c-0.81085,0.51419 -1.95789,0.79107 -3.18405,0.98884c-4.31132,0.67241 -9.71036,0 -9.71036,0c-1.08772,-0.13844 -2.07655,0.63285 -2.21499,1.72057c-0.13844,1.08772 0.63285,2.07655 1.72057,2.21499c0,0 8.26666,0.98884 13.23062,-0.55375c2.43254,-0.75151 4.11356,-2.11611 4.64753,-4.05423c2.17544,-1.08772 7.8118,-3.85646 12.51866,-5.65614c2.2941,-0.88995 4.31132,-1.58214 5.45837,-1.58214c0.67241,0 1.60191,0 2.47209,0.19777c0.47464,0.11866 0.94928,0.2571 1.22616,0.67241c0.17799,0.2571 0.2571,0.5933 0.2571,1.02839c-0.03955,0.09888 -0.2571,0.55375 -0.47464,0.87018c-0.71196,1.06794 -1.91834,2.37321 -3.42137,3.79713c-3.69824,3.50048 -9.15662,7.61403 -14.08102,10.363c-3.02584,1.68102 -5.79458,2.86762 -7.75247,2.86762l-15.82137,0c-4.31132,0 -12.57799,-2.41276 -15.82137,-3.42137l0,0l0.01978,-0.05933zm47.4641,-18.82743c-0.31643,0.11866 -0.63285,0.23732 -0.94928,0.35598c-3.75757,1.4437 -8.12823,3.50048 -10.91674,4.86507l0,-18.57033l11.86603,0l0,13.34928l0,0zm-15.82137,1.91834c-0.35598,-0.21754 -0.71196,-0.43509 -1.1075,-0.63285c-1.89856,-0.96906 -4.27177,-1.66124 -6.80319,-2.11611l0,-12.53843l7.91068,0l0,15.2874l0,0zm-11.86603,-3.24338c-1.34482,-0.11866 -2.66986,-0.15821 -3.95534,-0.15821c-2.01722,0 -4.96395,0.51419 -7.91068,1.1866l0,-13.05263l11.86603,0l0,12.02424l0,0zm31.64274,-21.91259c0,-0.53397 -0.21754,-1.02839 -0.57352,-1.40415c-0.37576,-0.37576 -0.88995,-0.57352 -1.40415,-0.57352l-43.48899,0c-0.53397,0 -1.02839,0.21754 -1.40415,0.57352c-0.37576,0.37576 -0.57352,0.88995 -0.57352,1.40415l0,3.87624c0,0.53397 0.21754,1.06794 0.5933,1.4437c0.37576,0.37576 0.90973,0.5933 1.4437,0.5933l43.3901,0c0.53397,0 1.06794,-0.21754 1.4437,-0.5933c0.37576,-0.37576 0.5933,-0.90973 0.5933,-1.4437l0,-3.87624l0,0l-0.01978,0zm-22.05103,-28.73556l2.92695,4.72663l5.67592,1.1866c0.69218,0.13844 1.26571,0.65263 1.48325,1.34482c0.21754,0.67241 0.03955,1.42392 -0.43509,1.95789l-3.79713,4.05423l0.55375,5.37927c0.07911,0.69218 -0.21754,1.36459 -0.79107,1.7799c-0.55375,0.41531 -1.28549,0.51419 -1.93812,0.23732l-5.35949,-2.21499l-5.35949,2.21499c-0.65263,0.2571 -1.38437,0.17799 -1.93812,-0.23732c-0.55375,-0.41531 -0.8504,-1.08772 -0.79107,-1.7799l0.55375,-5.37927l-3.79713,-4.05423c-0.49442,-0.51419 -0.65263,-1.26571 -0.43509,-1.95789c0.21754,-0.67241 0.79107,-1.1866 1.48325,-1.34482l5.67592,-1.1866l2.92695,-4.72663c0.35598,-0.57352 0.98884,-0.92951 1.68102,-0.92951s1.32504,0.35598 1.68102,0.92951l0,0zm16.01914,15.50494c-0.3362,1.02839 -1.46348,1.60191 -2.49187,1.24593c-1.02839,-0.3362 -1.60191,-1.46348 -1.24593,-2.49187c1.26571,-3.79713 3.32249,-8.34577 6.111,-11.39139c2.13588,-2.33365 4.70686,-3.79713 7.63381,-3.79713c1.08772,0 1.97767,0.88995 1.97767,1.97767s-0.88995,1.97767 -1.97767,1.97767c-1.83923,0 -3.36204,1.06794 -4.70686,2.53142c-2.43254,2.65008 -4.17289,6.64497 -5.28038,9.96746l0,0l-0.01978,-0.01978zm-31.64274,-1.24593c0.35598,1.02839 -0.21754,2.15566 -1.24593,2.49187c-1.02839,0.35598 -2.15566,-0.21754 -2.49187,-1.24593c-1.1075,-3.32249 -2.84785,-7.31738 -5.28038,-9.96746c-1.34482,-1.46348 -2.8874,-2.53142 -4.70686,-2.53142c-1.08772,0 -1.97767,-0.88995 -1.97767,-1.97767s0.88995,-1.97767 1.97767,-1.97767c2.92695,0 5.49793,1.46348 7.63381,3.79713c2.78852,3.04561 4.84529,7.59426 6.111,11.39139l0,0l-0.01978,0.01978zm13.94258,-9.47304l-1.7008,2.72919c-0.27687,0.45486 -0.75151,0.79107 -1.28549,0.88995l-3.06539,0.63285l2.01722,2.15566c0.39553,0.41531 0.57352,0.98884 0.51419,1.56236l-0.29665,2.98628l3.04561,-1.26571c0.47464,-0.19777 1.02839,-0.19777 1.50303,0l3.04561,1.26571l-0.29665,-2.98628c-0.05933,-0.57352 0.13844,-1.14705 0.51419,-1.56236l2.01722,-2.15566l-3.06539,-0.63285c-0.53397,-0.11866 -0.98884,-0.43509 -1.28549,-0.88995l-1.7008,-2.72919l0,0l0.03955,0zm-22.32791,4.74641c0.77129,0.77129 0.77129,2.01722 0,2.80829c-0.77129,0.77129 -2.01722,0.77129 -2.80829,0c-0.79107,-0.79107 -1.97767,-1.60191 -3.18405,-1.99745c-0.71196,-0.23732 -1.4437,-0.45486 -1.93812,0.01978c-0.77129,0.77129 -2.01722,0.77129 -2.80829,0c-0.77129,-0.77129 -0.77129,-2.01722 0,-2.80829c1.24593,-1.24593 2.98628,-1.62169 4.84529,-1.26571c2.11611,0.39553 4.42998,1.81946 5.87368,3.24338l0,0l0.01978,0zm47.4641,2.80829c-0.77129,0.77129 -2.01722,0.77129 -2.80829,0c-0.77129,-0.77129 -0.77129,-2.01722 0,-2.80829c1.4437,-1.4437 3.75757,-2.84785 5.87368,-3.24338c1.85901,-0.35598 3.57958,0 4.84529,1.26571c0.77129,0.77129 0.77129,2.01722 0,2.80829c-0.77129,0.77129 -2.01722,0.77129 -2.80829,0c-0.47464,-0.47464 -1.20638,-0.2571 -1.93812,-0.01978c-1.1866,0.39553 -2.39298,1.20638 -3.18405,1.99745l0,0l0.01978,0z"/>
 </g>
</svg>