<svg width="80" height="80" xmlns="http://www.w3.org/2000/svg" version="1.1">

 <g>
  <title>Layer 1</title>
  <path stroke="null" id="svg_1" fill-rule="evenodd" d="m56.39054,11.48757l3.29362,0c2.23909,0 4.38325,0.8893 5.965,2.47107c1.58175,1.58175 2.47107,3.72591 2.47107,5.965l0,50.61641c0,2.23909 -0.8893,4.38325 -2.47107,5.965c-1.58175,1.58175 -3.72591,2.47107 -5.965,2.47107l-39.36832,0c-2.23909,0 -4.38325,-0.8893 -5.965,-2.47107c-1.58175,-1.58175 -2.47107,-3.72591 -2.47107,-5.965l0,-50.61641c0,-2.23909 0.8893,-4.38325 2.47107,-5.965c1.58175,-1.58175 3.72591,-2.47107 5.965,-2.47107l3.29362,0c1.15648,-3.27598 4.28129,-5.62405 7.95447,-5.62405c1.37785,-3.30064 4.63628,-5.62405 8.43607,-5.62405s7.05822,2.32341 8.43607,5.62405c3.67318,0 6.79808,2.34806 7.95447,5.62405zm-7.95447,0l-2.14767,0c-1.43058,0 -2.63979,-1.0791 -2.79448,-2.50266c-0.19684,-1.75398 -1.68721,-3.12139 -3.49393,-3.12139s-3.29713,1.36732 -3.49393,3.12139c-0.15467,1.42356 -1.36381,2.50266 -2.79448,2.50266l-2.14767,0c-1.55368,0 -2.81202,1.25835 -2.81202,2.81202l0,2.81202c0,0.74518 0.29526,1.46225 0.82251,1.98596c0.52726,0.53077 1.24431,0.82603 1.98947,0.82603l16.87214,0c0.74518,0 1.46225,-0.29526 1.98947,-0.82603c0.52726,-0.52374 0.82251,-1.2408 0.82251,-1.98596l0,-2.81202c0,-1.55368 -1.25835,-2.81202 -2.81202,-2.81202l0.00007,0zm-25.30821,5.62405l-2.81202,0c-0.74518,0 -1.46225,0.29526 -1.98947,0.82251c-0.52726,0.53077 -0.82251,1.24431 -0.82251,1.98947l0,50.61641c0,0.74518 0.29526,1.45874 0.82251,1.98947c0.52726,0.52726 1.24431,0.82251 1.98947,0.82251l39.36832,0c0.74518,0 1.46225,-0.29526 1.98947,-0.82251c0.52726,-0.53077 0.82251,-1.24431 0.82251,-1.98947l0,-50.61641c0,-0.74518 -0.29526,-1.45874 -0.82251,-1.98947c-0.52726,-0.52726 -1.24431,-0.82251 -1.98947,-0.82251l-2.81202,0c0,2.23558 -0.8893,4.38325 -2.47107,5.965c-1.58175,1.58175 -3.72591,2.47107 -5.965,2.47107l-16.87214,0c-2.23909,0 -4.38325,-0.8893 -5.965,-2.47107c-1.58175,-1.58175 -2.47107,-3.72942 -2.47107,-5.965zm4.46054,41.01684l-1.98947,-1.98947c-1.10024,-1.09673 -1.10024,-2.87879 0,-3.97553c1.09673,-1.10024 2.87879,-1.10024 3.97553,0l1.98947,1.98596l1.98947,-1.98596c1.09673,-1.10024 2.87879,-1.10024 3.97553,0c1.10024,1.09673 1.10024,2.87879 0,3.97553l-1.98947,1.98947l1.98947,1.98596c1.10024,1.09673 1.10024,2.87879 0,3.97903c-1.09673,1.09673 -2.87879,1.09673 -3.97553,0l-1.98947,-1.98947l-1.98947,1.98947c-1.09673,1.09673 -2.87879,1.09673 -3.97553,0c-1.10024,-1.10024 -1.10024,-2.8823 0,-3.97903l1.98947,-1.98596zm18.03564,6.78755c-1.55368,0 -2.81202,-1.26186 -2.81202,-2.81202s1.25835,-2.81202 2.81202,-2.81202l8.43607,0c1.55368,0 2.81202,1.26186 2.81202,2.81202s-1.25835,2.81202 -2.81202,2.81202l-8.43607,0zm0,-16.87214c-1.55368,0 -2.81202,-1.26186 -2.81202,-2.81202s1.25835,-2.81202 2.81202,-2.81202l8.43607,0c1.55368,0 2.81202,1.26186 2.81202,2.81202s-1.25835,2.81202 -2.81202,2.81202l-8.43607,0zm-21.67372,-6.4466c-1.09673,-1.09673 -1.09673,-2.87879 0,-3.97553c1.09673,-1.10024 2.8823,-1.10024 3.97903,0l2.22856,2.22856l6.4466,-6.45011c1.09673,-1.09673 2.8823,-1.09673 3.97903,0s1.09673,2.87879 0,3.97903l-8.43607,8.43607c-1.09673,1.09673 -2.8823,1.09673 -3.97903,0l-4.21812,-4.21803z"/>
 </g>
</svg>