<svg width="100" height="100" xmlns="http://www.w3.org/2000/svg" data-name="Layer 1">
 <title>rounded</title>

 <g>
  <title>Layer 1</title>
  <path stroke="null" id="svg_1" d="m78.98535,6.52197l-5.79707,0l0,-2.89854a2.89854,2.89854 0 0 0 -5.79707,0l0,2.89854l-34.78242,0l0,-2.89854a2.89854,2.89854 0 0 0 -5.79707,0l0,2.89854l-5.79707,0a17.39121,17.39121 0 0 0 -17.39121,17.39121l0,57.97071a17.39121,17.39121 0 0 0 17.39121,17.39121l57.97071,0a17.39121,17.39121 0 0 0 17.39121,-17.39121l0,-57.97071a17.39121,17.39121 0 0 0 -17.39121,-17.39121zm11.59414,75.36192a11.60747,11.60747 0 0 1 -11.59414,11.59414l-57.97071,0a11.60747,11.60747 0 0 1 -11.59414,-11.59414l0,-57.97071a11.60747,11.60747 0 0 1 11.59414,-11.59414l5.79707,0l0,2.89854a2.89854,2.89854 0 0 0 5.79707,0l0,-2.89854l34.78242,0l0,2.89854a2.89854,2.89854 0 0 0 5.79707,0l0,-2.89854l5.79707,0a11.60747,11.60747 0 0 1 11.59414,11.59414l0,57.97071zm-40.57949,-57.97071a28.98535,28.98535 0 1 0 28.98535,28.98535a28.98535,28.98535 0 0 0 -28.98535,-28.98535zm0,52.17363a23.18828,23.18828 0 1 1 23.18828,-23.18828a23.21437,23.21437 0 0 1 -23.18828,23.18828zm14.49233,-23.18863a2.89854,2.89854 0 0 1 -2.89854,2.89854l-0.0018,-0.00035l-11.58834,0l-0.00365,0.0007a2.89854,2.89854 0 0 1 -2.89854,-2.89854l-0.00035,0l0,-14.49302l0.00035,0a2.89854,2.89854 0 0 1 5.79707,0.00035l-0.00035,0.0018l0,11.59165l8.69595,0l0,0.00035a2.89854,2.89854 0 0 1 2.89819,2.89854z"/>
 </g>
</svg>